<svg width="159" height="49" viewBox="0 0 159 49" fill="none" xmlns="http://www.w3.org/2000/svg">
<path d="M3.65088 12.7586C3.65088 12.7586 5.61392 13.7692 5.61392 14.3756V27.4647H8.59211V10.3086C6.92873 11.2763 3.65088 12.7586 3.65088 12.7586Z" fill="white"/>
<path d="M9.32593 13.579C9.32593 13.579 10.5612 12.452 13.0869 12.5133C15.6125 12.5745 16.1752 14.1793 16.1752 14.6141C16.1752 15.049 16.1752 27.4583 16.1752 27.4583H19.0372C19.0372 27.4583 19.0372 14.1486 19.0372 13.7995C19.0372 13.4504 18.2483 10.6023 14.5424 10.541C10.8854 10.6758 9.32593 13.579 9.32593 13.579Z" fill="white"/>
<path d="M82.894 13.8608C82.894 13.8608 84.1293 12.7583 86.655 12.8134C89.1807 12.8686 89.7433 14.4427 89.7433 14.8714C89.7433 15.3002 89.7433 27.4583 89.7433 27.4583H92.6053C92.6053 27.4583 92.6053 14.4121 92.6053 14.0691C92.6053 13.7261 91.8164 10.9331 88.1105 10.8779C84.4535 11.0127 82.894 13.8608 82.894 13.8608Z" fill="white"/>
<path d="M28.571 16.8867H37.4016C37.4016 16.8867 37.8847 12.0663 33.0964 10.9638C32.2035 10.7556 30.6625 10.7494 29.7696 10.9516C27.9472 11.3558 25.55 13.4199 24.8223 15.4473C24.0945 17.4747 23.96 20.5311 24.4676 22.0072C24.7305 22.7851 25.073 23.8263 25.7763 24.8492C26.4123 25.7679 27.4091 26.6928 27.9656 26.9991C29.1459 27.6361 34.1972 28.6467 37.4567 23.4711C37.4567 23.4711 34.1421 26.5519 31.1395 25.5536C31.1395 25.5536 29.2987 25.0758 27.8555 22.9076C26.4123 20.7393 26.449 18.6813 26.5652 17.4686C26.6814 16.2558 27.2684 14.5531 27.7332 13.7813C28.198 13.0096 29.629 11.2088 31.9589 11.6988C34.2889 12.1888 34.7781 13.9222 34.7781 14.6388C34.7781 15.3554 34.5641 15.9006 33.8914 16.0476L28.571 16.8867Z" fill="white"/>
<path d="M136.777 16.8867H145.607C145.607 16.8867 146.09 12.0663 141.302 10.9638C140.409 10.7556 138.868 10.7494 137.975 10.9516C136.153 11.3558 133.756 13.4199 133.028 15.4473C132.3 17.4747 132.166 20.5311 132.673 22.0072C132.936 22.7851 133.279 23.8263 133.982 24.8492C134.618 25.7679 135.615 26.6928 136.171 26.9991C137.351 27.6361 142.403 28.6467 145.662 23.4711C145.662 23.4711 142.348 26.5519 139.345 25.5536C139.345 25.5536 137.504 25.0758 136.061 22.9076C134.618 20.7393 134.655 18.6813 134.771 17.4686C134.887 16.2558 135.474 14.5531 135.939 13.7813C136.404 13.0096 137.835 11.2088 140.164 11.6988C142.494 12.1888 142.984 13.9222 142.984 14.6388C142.984 15.3554 142.77 15.9006 142.097 16.0476L136.777 16.8867Z" fill="white"/>
<path d="M51.2776 15.0307V11.5456C51.2776 11.5456 45.945 9.3222 43.0218 11.9376C43.0218 11.9376 40.4411 14.6632 42.9668 18.3504C42.9668 18.3504 43.6701 19.3611 46.954 20.6841C50.238 22.0071 51.2776 25.0144 48.1893 26.1966C46.9357 26.6743 46.0734 26.6498 45.4313 26.5641C44.4895 26.4354 44.0309 26.0006 43.5294 25.3819C42.6855 24.3407 41.8416 22.4542 41.8416 22.4542V26.0557C41.8416 26.0557 42.9362 26.7601 44.0859 27.2072C45.2356 27.6543 46.1223 27.5869 46.1223 27.5869C46.1223 27.5869 50.6294 27.7401 52.1766 24.0834C52.1766 24.0834 52.7942 22.3378 51.4488 20.5983C50.1034 18.8588 46.4526 17.2234 46.4526 17.2234C45.2723 16.6048 43.8719 15.7351 43.9819 14.1303C43.9819 14.1303 44.037 11.6252 46.7889 11.6558C46.7828 11.6558 50.2135 11.2638 51.2776 15.0307Z" fill="white"/>
<path d="M55.7722 12.783H58.1328V25.1555C58.1328 25.1555 58.4141 26.5826 59.7228 27.1645C61.0681 27.5197 64.083 28.2547 65.936 24.8798C65.936 24.8798 64.8597 25.6822 63.7039 25.8905C62.3646 26.1293 60.9091 25.7128 60.8786 24.5981V12.783H66.2112V11.264H60.8786V7.21533C60.8786 7.21533 59.4965 9.40808 58.4691 10.3575C57.4417 11.3068 55.7722 12.783 55.7722 12.783Z" fill="white"/>
<path d="M118.223 12.783H120.583V25.1555C120.583 25.1555 120.864 26.5826 122.173 27.1645C123.519 27.5197 126.533 28.2547 128.386 24.8798C128.386 24.8798 127.31 25.6822 126.154 25.8905C124.815 26.1293 123.36 25.7128 123.329 24.5981V12.783H128.662V11.264H123.329V7.21533C123.329 7.21533 121.947 9.40808 120.92 10.3575C119.892 11.3068 118.223 12.783 118.223 12.783Z" fill="white"/>
<path d="M77.6714 5.5127L79.3592 6.82957V27.4647H82.2763V3.21582L77.6714 5.5127Z" fill="white"/>
<path d="M114.089 15.2452C113.067 13.0096 110.945 10.5964 106.554 10.5474C105.637 10.5535 98.0479 11.2211 98.1152 18.9631C98.1825 26.1722 104.096 27.483 106.707 27.4585C106.707 27.4585 111.667 27.8137 114.009 22.681C115.085 20.329 115.165 17.5972 114.089 15.2452ZM111.728 21.7684C110.933 25.4127 109.367 26.748 106.652 26.846C103.038 26.6561 101.13 22.8341 101.258 18.7487C101.216 14.4674 103.02 12.5012 104.494 11.6989C105.692 11.0496 107.172 10.9822 108.365 11.6376C110.48 12.8014 111.361 15.9435 111.642 17.2175C111.71 17.536 111.759 17.8606 111.783 18.1852C111.82 18.6324 111.869 19.3551 111.887 20.0289C111.905 20.6107 111.85 21.1987 111.728 21.7684Z" fill="white"/>
<path d="M149.283 5.45139L150.854 6.82339V27.4646H153.771V3.16064L149.283 5.45139Z" fill="white"/>
<path d="M43.7188 38.0977V44.6269H42.7954V38.0977H43.7188Z" fill="white"/>
<path d="M50.5864 44.6269V38.0977H51.6872C53.1549 40.1434 55.2463 42.82 55.6194 43.4938H55.6377C55.5766 42.6424 55.5888 41.6134 55.5888 40.5538V38.0977H56.4511V44.6269H55.4115C54.4452 43.3223 51.889 39.8065 51.4242 39.047H51.4059C51.4548 39.8862 51.4548 40.811 51.4548 41.9687V44.633H50.5864V44.6269Z" fill="white"/>
<path d="M69.2995 42.7162C68.9265 43.837 68.1131 44.7619 66.254 44.7619C64.0892 44.7619 62.915 43.2429 62.915 41.3748C62.915 39.5067 64.2176 37.957 66.303 37.957C68.1865 37.957 69.0671 38.9738 69.324 40.0457H68.3761C68.0948 39.3597 67.5689 38.7288 66.2907 38.7288C64.7925 38.7288 63.8874 39.8374 63.8874 41.338C63.8874 42.8203 64.7864 43.9902 66.2969 43.9902C67.526 43.9902 68.0153 43.4634 68.37 42.71H69.2995V42.7162Z" fill="white"/>
<path d="M75.6899 38.0977H76.6134V40.7375H80.5394V38.0977H81.4629V44.6269H80.5394V41.5215H76.6134V44.6269H75.6899V38.0977Z" fill="white"/>
<path d="M93.1495 41.5828H89.2418V43.8429H93.5531L93.4308 44.6208H88.3245V38.0977H93.3574V38.8755H89.2418V40.8049H93.1495V41.5828Z" fill="white"/>
<path d="M106.285 41.3378C106.285 43.1814 105.038 44.7556 102.855 44.7556C100.757 44.7556 99.4421 43.2488 99.4421 41.3317C99.4421 39.5187 100.788 37.9507 102.879 37.9507C104.964 37.9568 106.285 39.5309 106.285 41.3378ZM100.421 41.3133C100.421 42.7159 101.277 43.9899 102.891 43.9899C104.487 43.9899 105.313 42.7772 105.313 41.3623C105.313 40.0087 104.463 38.7347 102.83 38.7347C101.313 38.7347 100.421 39.9352 100.421 41.3133Z" fill="white"/>
<path d="M112.749 44.6269V38.0977H113.85C115.318 40.1434 117.409 42.82 117.782 43.4938H117.801C117.746 42.6424 117.752 41.6134 117.752 40.5538V38.0977H118.614V44.6269H117.574C116.608 43.3223 114.052 39.8065 113.587 39.047H113.569C113.618 39.8862 113.618 40.811 113.618 41.9687V44.633H112.749V44.6269Z" fill="white"/>
</svg>
