<svg width="611" height="3015" viewBox="0 0 611 3015" fill="none" xmlns="http://www.w3.org/2000/svg">
<path fill-rule="evenodd" clip-rule="evenodd" d="M0 0.164856H-223V85.4603H0V2865H-223V3015H590.553C546.092 2889.64 433.918 2799.76 301.637 2796.16C139.146 2781.1 11.6229 2634.43 11.6229 2457.22C11.6229 2280.02 139.146 2133.35 301.637 2118.29C473.234 2113.62 611 1963.76 611 1779.58C611 1595.32 473.13 1445.42 301.437 1440.86C138.974 1425.77 11.4813 1279.12 11.4813 1101.93C11.4813 924.744 138.974 778.086 301.437 763C473.13 758.439 611 608.537 611 424.284C611 237.157 468.798 85.4603 293.379 85.4603H0V0.164856Z" fill="url(#paint0_linear_828_1192)"/>
<defs>
<linearGradient id="paint0_linear_828_1192" x1="194" y1="29.4047" x2="194" y2="2892.82" gradientUnits="userSpaceOnUse">
<stop stop-color="#F4F7EB" stop-opacity="0.02"/>
<stop offset="0.0362943" stop-color="#EEEDE5"/>
<stop offset="0.38" stop-color="#E2DFC7"/>
<stop offset="0.595" stop-color="#F0C28A"/>
<stop offset="0.903787" stop-color="#EAB370"/>
<stop offset="0.945764" stop-color="#E4B276" stop-opacity="0.307603"/>
<stop offset="0.98" stop-color="#E2B278" stop-opacity="0"/>
</linearGradient>
</defs>
</svg>
