<svg width="42" height="42" viewBox="0 0 42 42" fill="none" xmlns="http://www.w3.org/2000/svg">
<path d="M0 0H42V32C42 37.5228 37.5228 42 32 42H10C4.47715 42 0 37.5228 0 32V0Z" fill="#B0744D"/>
<path d="M32.8736 13.4715C33.8176 12.5193 33.8176 10.973 32.8736 10.0209C31.9296 9.06873 30.3965 9.06873 29.4525 10.0209L21.5001 18.0494L13.5402 10.0285C12.5962 9.07634 11.0632 9.07634 10.1191 10.0285C9.17513 10.9806 9.17513 12.5269 10.1191 13.4791L18.079 21.5L10.1267 29.5285C9.18268 30.4806 9.18268 32.0269 10.1267 32.9791C11.0707 33.9312 12.6038 33.9312 13.5478 32.9791L21.5001 24.9506L29.46 32.9715C30.404 33.9236 31.9371 33.9236 32.8811 32.9715C33.8251 32.0193 33.8251 30.473 32.8811 29.5209L24.9212 21.5L32.8736 13.4715Z" fill="white"/>
</svg>
