<svg width="35" height="35" viewBox="0 0 35 35" fill="none" xmlns="http://www.w3.org/2000/svg">
<g clip-path="url(#clip0_890_1289)">
<path d="M17.5 3.28125C21.271 3.28125 24.8876 4.77929 27.5542 7.44583C30.2207 10.1124 31.7188 13.729 31.7188 17.5C31.7188 21.271 30.2207 24.8876 27.5542 27.5542C24.8876 30.2207 21.271 31.7188 17.5 31.7188C13.729 31.7188 10.1124 30.2207 7.44583 27.5542C4.77929 24.8876 3.28125 21.271 3.28125 17.5C3.28125 13.729 4.77929 10.1124 7.44583 7.44583C10.1124 4.77929 13.729 3.28125 17.5 3.28125ZM17.5 35C22.1413 35 26.5925 33.1563 29.8744 29.8744C33.1563 26.5925 35 22.1413 35 17.5C35 12.8587 33.1563 8.40752 29.8744 5.12563C26.5925 1.84375 22.1413 0 17.5 0C12.8587 0 8.40752 1.84375 5.12563 5.12563C1.84375 8.40752 0 12.8587 0 17.5C0 22.1413 1.84375 26.5925 5.12563 29.8744C8.40752 33.1563 12.8587 35 17.5 35ZM25.2246 14.2871C25.8672 13.6445 25.8672 12.6055 25.2246 11.9697C24.582 11.334 23.543 11.3271 22.9072 11.9697L15.3193 19.5576L12.1064 16.3447C11.4639 15.7021 10.4248 15.7021 9.78906 16.3447C9.15332 16.9873 9.14648 18.0264 9.78906 18.6621L14.1641 23.0371C14.8066 23.6797 15.8457 23.6797 16.4814 23.0371L25.2246 14.2871Z" fill="#B0744D"/>
</g>
<defs>
<clipPath id="clip0_890_1289">
<rect width="35" height="35" fill="white"/>
</clipPath>
</defs>
</svg>
