<svg width="39" height="52" viewBox="0 0 39 52" fill="none" xmlns="http://www.w3.org/2000/svg">
<g clip-path="url(#clip0_877_1075)">
<path d="M39 19.5C39 28.3766 27.1172 44.1797 21.907 50.7C20.6578 52.2539 18.3422 52.2539 17.093 50.7C11.8828 44.1797 0 28.3766 0 19.5C0 8.73438 8.73438 0 19.5 0C30.2656 0 39 8.73438 39 19.5Z" fill="#333333"/>
<path d="M13.425 30V11.575H19.15C20.4 11.575 21.5083 11.725 22.475 12.025C23.4583 12.325 24.225 12.8083 24.775 13.475C25.3417 14.125 25.625 15 25.625 16.1C25.625 16.7 25.5167 17.2667 25.3 17.8C25.1 18.3333 24.8083 18.8083 24.425 19.225C24.0417 19.625 23.5667 19.9167 23 20.1V20.225C24.05 20.4417 24.9167 20.9167 25.6 21.65C26.2833 22.3667 26.625 23.35 26.625 24.6C26.625 25.8167 26.3167 26.825 25.7 27.625C25.1 28.425 24.2667 29.025 23.2 29.425C22.15 29.8083 20.9417 30 19.575 30H13.425ZM16.325 19.275H18.8C20.2 19.275 21.2083 19.025 21.825 18.525C22.4583 18.025 22.775 17.35 22.775 16.5C22.775 15.55 22.45 14.875 21.8 14.475C21.15 14.0583 20.175 13.85 18.875 13.85H16.325V19.275ZM16.325 27.725H19.25C20.6833 27.725 21.7917 27.4583 22.575 26.925C23.375 26.3917 23.775 25.5667 23.775 24.45C23.775 23.4167 23.3833 22.6667 22.6 22.2C21.8333 21.7167 20.7167 21.475 19.25 21.475H16.325V27.725Z" fill="white"/>
</g>
<defs>
<clipPath id="clip0_877_1075">
<rect width="39" height="52" fill="white"/>
</clipPath>
</defs>
</svg>
