<svg width="39" height="52" viewBox="0 0 39 52" fill="none" xmlns="http://www.w3.org/2000/svg">
<g clip-path="url(#clip0_877_1090)">
<path d="M39 19.5C39 28.3766 27.1172 44.1797 21.907 50.7C20.6578 52.2539 18.3422 52.2539 17.093 50.7C11.8828 44.1797 0 28.3766 0 19.5C0 8.73438 8.73438 0 19.5 0C30.2656 0 39 8.73438 39 19.5Z" fill="#333333"/>
<path d="M20.95 30.35C19.3167 30.35 17.85 29.975 16.55 29.225C15.2667 28.475 14.25 27.3917 13.5 25.975C12.7667 24.5583 12.4 22.8417 12.4 20.825C12.4 19.325 12.6167 17.9833 13.05 16.8C13.5 15.6167 14.1083 14.6167 14.875 13.8C15.6583 12.9667 16.5667 12.3333 17.6 11.9C18.65 11.4667 19.7917 11.25 21.025 11.25C22.325 11.25 23.4167 11.4917 24.3 11.975C25.2 12.4583 25.925 12.9917 26.475 13.575L24.925 15.425C24.4583 14.975 23.925 14.5917 23.325 14.275C22.725 13.9417 21.9833 13.775 21.1 13.775C19.9667 13.775 18.9667 14.0583 18.1 14.625C17.25 15.1917 16.5833 15.9917 16.1 17.025C15.6333 18.0583 15.4 19.3 15.4 20.75C15.4 22.2 15.625 23.4583 16.075 24.525C16.525 25.575 17.1833 26.3833 18.05 26.95C18.9167 27.5167 19.9833 27.8 21.25 27.8C21.8167 27.8 22.35 27.725 22.85 27.575C23.3667 27.4083 23.7833 27.1833 24.1 26.9V22.6H20.475V20.2H26.75V28.175C26.1333 28.7917 25.325 29.3083 24.325 29.725C23.325 30.1417 22.2 30.35 20.95 30.35Z" fill="white"/>
</g>
<defs>
<clipPath id="clip0_877_1090">
<rect width="39" height="52" fill="white"/>
</clipPath>
</defs>
</svg>
