<svg width="620" height="511" viewBox="0 0 620 511" fill="none" xmlns="http://www.w3.org/2000/svg">
<g clip-path="url(#clip0_877_1024)">
<path d="M1.67619 128.39V288.135" stroke="#C0A894" stroke-width="2" stroke-miterlimit="10"/>
<path d="M56.3862 74.9767H220.168V54.1484" stroke="#C0A894" stroke-width="2" stroke-miterlimit="10"/>
<path d="M319.764 133.329H338.441" stroke="#C0A894" stroke-miterlimit="10"/>
<path d="M319.764 141.488H338.441" stroke="#C0A894" stroke-miterlimit="10"/>
<path d="M319.764 149H338.441" stroke="#C0A894" stroke-miterlimit="10"/>
<path d="M319.764 155.872H338.441" stroke="#C0A894" stroke-miterlimit="10"/>
<path d="M319.764 162.528H338.441" stroke="#C0A894" stroke-miterlimit="10"/>
<path d="M319.764 179.708H338.441" stroke="#C0A894" stroke-miterlimit="10"/>
<path d="M319.764 186.148H338.441" stroke="#C0A894" stroke-miterlimit="10"/>
<path d="M319.764 192.804H338.441" stroke="#C0A894" stroke-miterlimit="10"/>
<path d="M319.764 199.892H338.441" stroke="#C0A894" stroke-miterlimit="10"/>
<path d="M319.764 207.188H338.441" stroke="#C0A894" stroke-miterlimit="10"/>
<path d="M91.2916 242.893H2.44067" stroke="#C0A894" stroke-width="2" stroke-miterlimit="10"/>
<path d="M91.29 242.893H278.572" stroke="#C0A894" stroke-width="2" stroke-miterlimit="10"/>
<path d="M219.308 8.57666H324.269V84.5854H274.685V55.6019H219.308V8.57666Z" fill="#C0A894"/>
<path d="M56.3857 74.2842H1.00259V128.39H56.3857V74.2842Z" fill="#C0A894"/>
<path d="M186.462 132.257H90.5136V165.754H186.462V132.257Z" fill="#C0A894"/>
<path d="M70.5502 192.804H56.3862V243.05H70.5502V192.804Z" fill="#C0A894"/>
<path d="M104.677 192.804H90.5136V243.05H104.677V192.804Z" fill="#C0A894"/>
<path d="M200.627 192.804H186.463V243.05H200.627V192.804Z" fill="#C0A894"/>
<path d="M246.35 229.521H232.826V243.05H246.35V229.521Z" fill="#C0A894"/>
<path d="M1.00259 288.134H56.3857V338.38H63.471V288.134H90.5128V266.879H200.632V286.848H317.191V386.046L70.5498 343.534H1.00259V288.134Z" fill="#C0A894"/>
<path d="M1.00259 448.533V509.726H284.99L1.00259 448.533Z" fill="#C0A894"/>
<path d="M463.364 290.068H368.702V386.046H463.364V290.068Z" fill="#C0A894"/>
<path d="M412.493 94.2462H338.441V1.48926H618.562V94.2462V116.795" stroke="#C0A894" stroke-width="2" stroke-miterlimit="10"/>
<path d="M602.458 94.2462H558.673V1.48926" stroke="#C0A894" stroke-width="2" stroke-miterlimit="10"/>
<path d="M544.503 94.2461H433.743H425.371" stroke="#C0A894" stroke-width="2" stroke-miterlimit="10"/>
<path d="M433.743 1.48926V94.2462" stroke="#C0A894" stroke-width="2" stroke-miterlimit="10"/>
<path d="M501.356 1.48926V94.2462" stroke="#C0A894" stroke-width="2" stroke-miterlimit="10"/>
<path d="M399.616 116.796H338.441V210.84H618.562V116.796H433.743H416.033" stroke="#C0A894" stroke-width="2" stroke-miterlimit="10"/>
<path d="M433.743 210.84V116.796" stroke="#C0A894" stroke-width="2" stroke-miterlimit="10"/>
<path d="M319.764 120.015V222.433H359.69V243.049H532.271V453.04H319.764V431.137L268.247 420.83L276.279 378.997" stroke="#C0A894" stroke-width="2" stroke-miterlimit="10"/>
<path d="M314.612 384.863L321.697 386.798V414.389H359.69V243.049" stroke="#C0A894" stroke-width="2" stroke-miterlimit="10"/>
<path d="M277.904 243.05V192.804" stroke="#C0A894" stroke-width="2" stroke-miterlimit="10"/>
<path d="M356.901 94.2461V116.796" stroke="#C0A894" stroke-miterlimit="10"/>
<path d="M346.042 94.2461V116.796" stroke="#C0A894" stroke-miterlimit="10"/>
<path d="M1.00259 381.624L319.764 462.577H618.562V509.727H305.841L1.00259 442.876V381.624Z" stroke="#C0A894" stroke-width="2" stroke-miterlimit="10"/>
</g>
<defs>
<clipPath id="clip0_877_1024">
<rect width="620" height="511" fill="white"/>
</clipPath>
</defs>
</svg>
