<svg width="50" height="50" viewBox="0 0 50 50" fill="none" xmlns="http://www.w3.org/2000/svg">
<g clip-path="url(#clip0_512_1259)">
<path d="M25 4.6875C30.3872 4.6875 35.5538 6.82756 39.3631 10.6369C43.1724 14.4462 45.3125 19.6128 45.3125 25C45.3125 30.3872 43.1724 35.5538 39.3631 39.3631C35.5538 43.1724 30.3872 45.3125 25 45.3125C19.6128 45.3125 14.4462 43.1724 10.6369 39.3631C6.82756 35.5538 4.6875 30.3872 4.6875 25C4.6875 19.6128 6.82756 14.4462 10.6369 10.6369C14.4462 6.82756 19.6128 4.6875 25 4.6875ZM25 50C31.6304 50 37.9893 47.3661 42.6777 42.6777C47.3661 37.9893 50 31.6304 50 25C50 18.3696 47.3661 12.0107 42.6777 7.32233C37.9893 2.63392 31.6304 0 25 0C18.3696 0 12.0107 2.63392 7.32233 7.32233C2.63392 12.0107 0 18.3696 0 25C0 31.6304 2.63392 37.9893 7.32233 42.6777C12.0107 47.3661 18.3696 50 25 50ZM36.0352 20.4102C36.9531 19.4922 36.9531 18.0078 36.0352 17.0996C35.1172 16.1914 33.6328 16.1816 32.7246 17.0996L21.8848 27.9395L17.2949 23.3496C16.377 22.4316 14.8926 22.4316 13.9844 23.3496C13.0762 24.2676 13.0664 25.752 13.9844 26.6602L20.2344 32.9102C21.1523 33.8281 22.6367 33.8281 23.5449 32.9102L36.0352 20.4102Z" fill="#B0744D"/>
</g>
<defs>
<clipPath id="clip0_512_1259">
<rect width="50" height="50" fill="white"/>
</clipPath>
</defs>
</svg>
