<svg width="50" height="44" viewBox="0 0 50 44" fill="none" xmlns="http://www.w3.org/2000/svg">
<path d="M47.5351 8.92031L42.5611 1.12578C42.1184 0.429688 41.3285 0 40.4865 0H9.51424C8.67222 0 7.88229 0.429688 7.43959 1.12578L2.45695 8.92031C-0.112497 12.9422 2.16181 18.5367 6.96216 19.1812C7.30938 19.2242 7.66528 19.25 8.0125 19.25C10.2781 19.25 12.292 18.2703 13.6722 16.7578C15.0524 18.2703 17.0663 19.25 19.3319 19.25C21.5976 19.25 23.6115 18.2703 24.9917 16.7578C26.3719 18.2703 28.3858 19.25 30.6514 19.25C32.9257 19.25 34.9309 18.2703 36.3111 16.7578C37.7 18.2703 39.7052 19.25 41.9708 19.25C42.3267 19.25 42.674 19.2242 43.0212 19.1812C47.8389 18.5453 50.1219 12.9508 47.5438 8.92031H47.5351ZM43.3771 21.9055H43.3684C42.9083 21.9656 42.4396 22 41.9622 22C40.8858 22 39.8528 21.8367 38.8892 21.5445V33H11.1115V21.5359C10.1392 21.8367 9.09757 22 8.02118 22C7.54375 22 7.06632 21.9656 6.60625 21.9055H6.59757C6.24167 21.8539 5.89445 21.7938 5.55591 21.7078V33V38.5C5.55591 41.5336 8.04723 44 11.1115 44H38.8892C41.9535 44 44.4448 41.5336 44.4448 38.5V33V21.7078C44.0976 21.7938 43.7504 21.8625 43.3771 21.9055Z" fill="black"/>
</svg>
