<svg width="44" height="50" viewBox="0 0 44 50" fill="none" xmlns="http://www.w3.org/2000/svg">
<g clip-path="url(#clip0_520_966)">
<path d="M21.9291 0C24.0063 0 25.9984 0.8231 27.4672 2.28823C28.936 3.75336 29.7612 5.7405 29.7612 7.8125C29.7612 9.8845 28.936 11.8716 27.4672 13.3368C25.9984 14.8019 24.0063 15.625 21.9291 15.625C19.8519 15.625 17.8598 14.8019 16.391 13.3368C14.9222 11.8716 14.097 9.8845 14.097 7.8125C14.097 5.7405 14.9222 3.75336 16.391 2.28823C17.8598 0.8231 19.8519 0 21.9291 0ZM42.7624 37.3828L36.5653 45.1172C34.9402 47.1387 31.9835 47.4707 29.957 45.8496C28.2339 44.4727 27.7346 42.1289 28.6353 40.2148L28.557 40.2051C24.7487 39.6582 21.283 37.7539 18.7963 34.8535V31.25C18.7963 29.5215 17.3963 28.125 15.6634 28.125C13.9306 28.125 12.5306 29.5215 12.5306 31.25V35.9375C12.5306 36.0156 12.5306 36.0937 12.5404 36.1719L22.4676 41.123C24.7878 42.2852 25.7277 45.0977 24.5724 47.4121C23.4172 49.7266 20.5879 50.6641 18.2676 49.5117L2.66219 41.7285C2.5545 41.6797 2.44681 41.6211 2.33912 41.5625C1.8594 41.2891 1.43843 40.9375 1.10557 40.5273C0.655221 40 0.341938 39.3848 0.165716 38.7305C-0.157357 37.5586 -0.0202957 36.2695 0.635641 35.1562C0.694382 35.0488 0.762912 34.9414 0.831443 34.8437L7.4006 25.0098C10.0146 21.0938 14.4201 18.75 19.1291 18.75H26.4913C31.0437 18.75 35.3122 20.9473 37.9653 24.6387L42.9289 31.5625C43.1443 31.8555 43.3205 32.1582 43.4673 32.4805C43.7512 33.1348 43.8883 33.8281 43.8589 34.5117C43.8296 35.5469 43.4477 36.5625 42.7624 37.3828ZM31.3276 32.4219C31.3276 31.2823 30.8738 30.1893 30.0659 29.3835C29.2581 28.5777 28.1624 28.125 27.02 28.125C25.8775 28.125 24.7818 28.5777 23.974 29.3835C23.1662 30.1893 22.7123 31.2823 22.7123 32.4219C22.7123 33.5615 23.1662 34.6544 23.974 35.4602C24.7818 36.266 25.8775 36.7187 27.02 36.7187C28.1624 36.7187 29.2581 36.266 30.0659 35.4602C30.8738 34.6544 31.3276 33.5615 31.3276 32.4219Z" fill="black"/>
</g>
<defs>
<clipPath id="clip0_520_966">
<rect width="43.8596" height="50" fill="white"/>
</clipPath>
</defs>
</svg>
