<svg width="39" height="52" viewBox="0 0 39 52" fill="none" xmlns="http://www.w3.org/2000/svg">
<g clip-path="url(#clip0_505_731)">
<path d="M39 19.5C39 28.3766 27.1172 44.1797 21.907 50.7C20.6578 52.2539 18.3422 52.2539 17.093 50.7C11.8828 44.1797 0 28.3766 0 19.5C0 8.73438 8.73438 0 19.5 0C30.2656 0 39 8.73438 39 19.5Z" fill="#333333"/>
<path d="M12 30L18.1 11.575H21.45L27.55 30H24.475L21.5 20C21.2 19 20.9083 17.9917 20.625 16.975C20.3417 15.9417 20.0583 14.9083 19.775 13.875H19.675C19.4083 14.925 19.125 15.9583 18.825 16.975C18.5417 17.9917 18.25 19 17.95 20L14.975 30H12ZM15.45 24.775V22.475H24.05V24.775H15.45Z" fill="white"/>
</g>
<defs>
<clipPath id="clip0_505_731">
<rect width="39" height="52" fill="white"/>
</clipPath>
</defs>
</svg>
