<svg width="39" height="52" viewBox="0 0 39 52" fill="none" xmlns="http://www.w3.org/2000/svg">
<g clip-path="url(#clip0_505_791)">
<path d="M39 19.5C39 28.3766 27.1172 44.1797 21.907 50.7C20.6578 52.2539 18.3422 52.2539 17.093 50.7C11.8828 44.1797 0 28.3766 0 19.5C0 8.73438 8.73438 0 19.5 0C30.2656 0 39 8.73438 39 19.5Z" fill="#B0744D"/>
<path d="M19.075 30.35C17.8417 30.35 16.7833 30.0917 15.9 29.575C15.0333 29.0583 14.3167 28.2917 13.75 27.275L15.775 25.8C16.175 26.5 16.625 27.0083 17.125 27.325C17.625 27.6417 18.1667 27.8 18.75 27.8C19.6833 27.8 20.375 27.525 20.825 26.975C21.275 26.4083 21.5 25.45 21.5 24.1V11.575H24.425V24.35C24.425 25.45 24.2417 26.4583 23.875 27.375C23.5083 28.275 22.9333 29 22.15 29.55C21.3667 30.0833 20.3417 30.35 19.075 30.35Z" fill="white"/>
</g>
<defs>
<clipPath id="clip0_505_791">
<rect width="39" height="52" fill="white"/>
</clipPath>
</defs>
</svg>
