<svg width="39" height="52" viewBox="0 0 39 52" fill="none" xmlns="http://www.w3.org/2000/svg">
<g clip-path="url(#clip0_505_773)">
<path d="M39 19.5C39 28.3766 27.1172 44.1797 21.907 50.7C20.6578 52.2539 18.3422 52.2539 17.093 50.7C11.8828 44.1797 0 28.3766 0 19.5C0 8.73438 8.73438 0 19.5 0C30.2656 0 39 8.73438 39 19.5Z" fill="#333333"/>
<path d="M13.425 30V11.575H18.2C20.1 11.575 21.7083 11.925 23.025 12.625C24.3417 13.3083 25.3417 14.325 26.025 15.675C26.725 17.025 27.075 18.7083 27.075 20.725C27.075 22.725 26.725 24.4167 26.025 25.8C25.3417 27.1833 24.35 28.2333 23.05 28.95C21.75 29.65 20.1833 30 18.35 30H13.425ZM16.325 27.625H18C19.3167 27.625 20.425 27.3667 21.325 26.85C22.2417 26.3333 22.925 25.5667 23.375 24.55C23.8417 23.5167 24.075 22.2417 24.075 20.725C24.075 19.1917 23.8417 17.925 23.375 16.925C22.925 15.925 22.2417 15.1833 21.325 14.7C20.425 14.2 19.3167 13.95 18 13.95H16.325V27.625Z" fill="white"/>
</g>
<defs>
<clipPath id="clip0_505_773">
<rect width="39" height="52" fill="white"/>
</clipPath>
</defs>
</svg>
