<svg width="39" height="52" viewBox="0 0 39 52" fill="none" xmlns="http://www.w3.org/2000/svg">
<g clip-path="url(#clip0_505_770)">
<path d="M39 19.5C39 28.3766 27.1172 44.1797 21.907 50.7C20.6578 52.2539 18.3422 52.2539 17.093 50.7C11.8828 44.1797 0 28.3766 0 19.5C0 8.73438 8.73438 0 19.5 0C30.2656 0 39 8.73438 39 19.5Z" fill="#333333"/>
<path d="M20.6 30.35C19.45 30.35 18.375 30.1417 17.375 29.725C16.3917 29.2917 15.525 28.6667 14.775 27.85C14.025 27.0333 13.4417 26.0417 13.025 24.875C12.6083 23.6917 12.4 22.3417 12.4 20.825C12.4 19.325 12.6167 17.9833 13.05 16.8C13.4833 15.6167 14.075 14.6167 14.825 13.8C15.575 12.9667 16.4583 12.3333 17.475 11.9C18.4917 11.4667 19.5833 11.25 20.75 11.25C21.8833 11.25 22.8917 11.4833 23.775 11.95C24.6583 12.4167 25.3833 12.9583 25.95 13.575L24.4 15.425C23.9167 14.9417 23.375 14.55 22.775 14.25C22.1917 13.9333 21.5333 13.775 20.8 13.775C19.7333 13.775 18.7917 14.0583 17.975 14.625C17.175 15.1917 16.5417 15.9917 16.075 17.025C15.625 18.0583 15.4 19.3 15.4 20.75C15.4 22.2 15.6167 23.4583 16.05 24.525C16.4833 25.575 17.1 26.3833 17.9 26.95C18.7 27.5167 19.6417 27.8 20.725 27.8C21.5583 27.8 22.3 27.625 22.95 27.275C23.6167 26.9083 24.225 26.425 24.775 25.825L26.35 27.675C25.6 28.5417 24.75 29.2083 23.8 29.675C22.8667 30.125 21.8 30.35 20.6 30.35Z" fill="white"/>
</g>
<defs>
<clipPath id="clip0_505_770">
<rect width="39" height="52" fill="white"/>
</clipPath>
</defs>
</svg>
