<svg width="773" height="637" viewBox="0 0 773 637" fill="none" xmlns="http://www.w3.org/2000/svg">
<path d="M2.08984 160.048V359.182" stroke="#C0A894" stroke-width="2" stroke-miterlimit="10"/>
<path d="M70.3008 93.464H274.5V67.5" stroke="#C0A894" stroke-width="2" stroke-miterlimit="10"/>
<path d="M398.674 166.204H421.959" stroke="#C0A894" stroke-miterlimit="10"/>
<path d="M398.674 176.375H421.959" stroke="#C0A894" stroke-miterlimit="10"/>
<path d="M398.674 185.739H421.959" stroke="#C0A894" stroke-miterlimit="10"/>
<path d="M398.674 194.306H421.959" stroke="#C0A894" stroke-miterlimit="10"/>
<path d="M398.674 202.603H421.959" stroke="#C0A894" stroke-miterlimit="10"/>
<path d="M398.674 224.019H421.959" stroke="#C0A894" stroke-miterlimit="10"/>
<path d="M398.674 232.048H421.959" stroke="#C0A894" stroke-miterlimit="10"/>
<path d="M398.674 240.345H421.959" stroke="#C0A894" stroke-miterlimit="10"/>
<path d="M398.674 249.18H421.959" stroke="#C0A894" stroke-miterlimit="10"/>
<path d="M398.674 258.275H421.959" stroke="#C0A894" stroke-miterlimit="10"/>
<path d="M113.82 302.784H3.04297" stroke="#C0A894" stroke-width="2" stroke-miterlimit="10"/>
<path d="M113.818 302.784H347.316" stroke="#C0A894" stroke-width="2" stroke-miterlimit="10"/>
<path d="M273.428 10.6914H404.29V105.442H342.47V69.3119H273.428V10.6914Z" fill="#C0A894"/>
<path d="M70.3002 92.6006H1.25V160.048H70.3002V92.6006Z" fill="#C0A894"/>
<path d="M232.476 164.868H112.85V206.625H232.476V164.868Z" fill="#C0A894"/>
<path d="M87.9602 240.345H70.3008V302.98H87.9602V240.345Z" fill="#C0A894"/>
<path d="M130.509 240.345H112.85V302.98H130.509V240.345Z" fill="#C0A894"/>
<path d="M250.136 240.345H232.477V302.98H250.136V240.345Z" fill="#C0A894"/>
<path d="M307.143 286.116H290.281V302.98H307.143V286.116Z" fill="#C0A894"/>
<path d="M1.25 359.181H70.3002V421.816H79.134V359.181H112.849V332.685H250.143V357.577H395.465V481.235L87.9596 428.241H1.25V359.181Z" fill="#C0A894"/>
<path d="M1.25 559.13V635.412H355.318L1.25 559.13Z" fill="#C0A894"/>
<path d="M577.71 361.592H459.688V481.235H577.71V361.592Z" fill="#C0A894"/>
<path d="M514.286 117.485H421.959V1.85645H771.207V117.485V145.594" stroke="#C0A894" stroke-width="2" stroke-miterlimit="10"/>
<path d="M751.129 117.485H696.539V1.85645" stroke="#C0A894" stroke-width="2" stroke-miterlimit="10"/>
<path d="M678.872 117.485H540.78H530.342" stroke="#C0A894" stroke-width="2" stroke-miterlimit="10"/>
<path d="M540.779 1.85645V117.485" stroke="#C0A894" stroke-width="2" stroke-miterlimit="10"/>
<path d="M625.078 1.85645V117.485" stroke="#C0A894" stroke-width="2" stroke-miterlimit="10"/>
<path d="M498.231 145.595H421.959V262.828H771.207V145.595H540.78H518.699" stroke="#C0A894" stroke-width="2" stroke-miterlimit="10"/>
<path d="M540.779 262.828V145.595" stroke="#C0A894" stroke-width="2" stroke-miterlimit="10"/>
<path d="M398.674 149.608V277.28H448.452V302.979H663.622V564.748H398.674V537.445L334.443 524.596L344.458 472.449" stroke="#C0A894" stroke-width="2" stroke-miterlimit="10"/>
<path d="M392.25 479.761L401.084 482.172V516.567H448.452V302.979" stroke="#C0A894" stroke-width="2" stroke-miterlimit="10"/>
<path d="M346.484 302.98V240.345" stroke="#C0A894" stroke-width="2" stroke-miterlimit="10"/>
<path d="M444.975 117.485V145.595" stroke="#C0A894" stroke-miterlimit="10"/>
<path d="M431.436 117.485V145.595" stroke="#C0A894" stroke-miterlimit="10"/>
<path d="M1.25 475.723L398.673 576.637H771.207V635.413H381.315L1.25 552.078V475.723Z" stroke="#C0A894" stroke-width="2" stroke-miterlimit="10"/>
</svg>
