<svg width="194" height="60" viewBox="0 0 194 60" fill="none" xmlns="http://www.w3.org/2000/svg">
<path d="M4.4541 15.5432C4.4541 15.5432 6.84926 16.7743 6.84926 17.513V33.4583H10.483V12.5586C8.45351 13.7375 4.4541 15.5432 4.4541 15.5432Z" fill="#B0744D"/>
<path d="M11.3789 16.5407C11.3789 16.5407 12.8861 15.1678 15.9678 15.2424C19.0494 15.317 19.7358 17.272 19.7358 17.8017C19.7358 18.3315 19.7358 33.4486 19.7358 33.4486H23.2278C23.2278 33.4486 23.2278 17.2347 23.2278 16.8093C23.2278 16.384 22.2653 12.9144 17.7436 12.8398C13.2816 13.004 11.3789 16.5407 11.3789 16.5407Z" fill="#B0744D"/>
<path d="M101.142 16.8838C101.142 16.8838 102.649 15.5407 105.73 15.6079C108.812 15.675 109.499 17.5926 109.499 18.1149C109.499 18.6372 109.499 33.4484 109.499 33.4484H112.991C112.991 33.4484 112.991 17.5553 112.991 17.1375C112.991 16.7196 112.028 13.3172 107.506 13.25C103.044 13.4142 101.142 16.8838 101.142 16.8838Z" fill="#B0744D"/>
<path d="M34.86 20.5705H45.6345C45.6345 20.5705 46.224 14.6982 40.3816 13.3552C39.2922 13.1015 37.4119 13.094 36.3225 13.3402C34.099 13.8327 31.174 16.3472 30.2861 18.817C29.3982 21.2868 29.234 25.0101 29.8534 26.8083C30.1742 27.7559 30.592 29.0244 31.4501 30.2705C32.2261 31.3897 33.4424 32.5164 34.1214 32.8895C35.5614 33.6655 41.7247 34.8966 45.7017 28.5916C45.7017 28.5916 41.6575 32.3448 37.9939 31.1285C37.9939 31.1285 35.748 30.5465 33.987 27.9052C32.2261 25.2638 32.2709 22.7567 32.4127 21.2793C32.5544 19.8019 33.2707 17.7276 33.8378 16.7875C34.4049 15.8473 36.1509 13.6536 38.9937 14.2505C41.8366 14.8475 42.4335 16.9591 42.4335 17.8321C42.4335 18.7051 42.1724 19.3692 41.3516 19.5482L34.86 20.5705Z" fill="#B0744D"/>
<path d="M166.885 20.5705H177.659C177.659 20.5705 178.249 14.6982 172.406 13.3552C171.317 13.1015 169.437 13.094 168.347 13.3402C166.124 13.8327 163.199 16.3472 162.311 18.817C161.423 21.2868 161.259 25.0101 161.878 26.8083C162.199 27.7559 162.617 29.0244 163.475 30.2705C164.251 31.3897 165.467 32.5164 166.146 32.8895C167.586 33.6655 173.75 34.8966 177.727 28.5916C177.727 28.5916 173.682 32.3448 170.019 31.1285C170.019 31.1285 167.773 30.5465 166.012 27.9052C164.251 25.2638 164.296 22.7567 164.438 21.2793C164.579 19.8019 165.296 17.7276 165.863 16.7875C166.43 15.8473 168.176 13.6536 171.019 14.2505C173.861 14.8475 174.458 16.9591 174.458 17.8321C174.458 18.7051 174.197 19.3692 173.376 19.5482L166.885 20.5705Z" fill="#B0744D"/>
<path d="M62.5649 18.3117V14.0661C62.5649 14.0661 56.0585 11.3575 52.4918 14.5436C52.4918 14.5436 49.3431 17.864 52.4247 22.3558C52.4247 22.3558 53.2828 23.587 57.2896 25.1987C61.2965 26.8104 62.5649 30.474 58.7968 31.9141C57.2672 32.4961 56.2151 32.4662 55.4317 32.3618C54.2826 32.2051 53.723 31.6753 53.1111 30.9217C52.0815 29.6532 51.0518 27.3551 51.0518 27.3551V31.7425C51.0518 31.7425 52.3874 32.6005 53.7901 33.1452C55.1929 33.6899 56.2748 33.6078 56.2748 33.6078C56.2748 33.6078 61.774 33.7944 63.6618 29.3398C63.6618 29.3398 64.4154 27.2133 62.7738 25.0942C61.1323 22.9752 56.6778 20.9829 56.6778 20.9829C55.2377 20.2293 53.529 19.1698 53.6633 17.2148C53.6633 17.2148 53.7305 14.1631 57.0881 14.2004C57.0807 14.2004 61.2666 13.7228 62.5649 18.3117Z" fill="#B0744D"/>
<path d="M68.0488 15.5716H70.929V30.6439C70.929 30.6439 71.2722 32.3825 72.869 33.0913C74.5105 33.5241 78.1891 34.4195 80.4499 30.3082C80.4499 30.3082 79.1367 31.2856 77.7264 31.5393C76.0924 31.8303 74.3165 31.3229 74.2792 29.9649V15.5716H80.7857V13.7212H74.2792V8.78906C74.2792 8.78906 72.5929 11.4603 71.3394 12.6169C70.0858 13.7734 68.0488 15.5716 68.0488 15.5716Z" fill="#B0744D"/>
<path d="M144.246 15.5716H147.126V30.6439C147.126 30.6439 147.469 32.3825 149.066 33.0913C150.708 33.5241 154.386 34.4195 156.647 30.3082C156.647 30.3082 155.334 31.2856 153.924 31.5393C152.29 31.8303 150.514 31.3229 150.476 29.9649V15.5716H156.983V13.7212H150.476V8.78906C150.476 8.78906 148.79 11.4603 147.537 12.6169C146.283 13.7734 144.246 15.5716 144.246 15.5716Z" fill="#B0744D"/>
<path d="M94.7686 6.71604L96.8279 8.32027V33.4582H100.387V3.91797L94.7686 6.71604Z" fill="#B0744D"/>
<path d="M139.202 18.5707C137.956 15.8472 135.367 12.9074 130.009 12.8477C128.89 12.8551 119.63 13.6684 119.712 23.0998C119.795 31.8821 127.01 33.4788 130.196 33.449C130.196 33.449 136.247 33.8818 139.105 27.629C140.418 24.7638 140.515 21.4359 139.202 18.5707ZM136.322 26.5172C135.352 30.9568 133.442 32.5834 130.129 32.7028C125.719 32.4715 123.391 27.8155 123.548 22.8387C123.495 17.6231 125.697 15.2279 127.495 14.2504C128.957 13.4595 130.763 13.3774 132.218 14.1758C134.8 15.5935 135.874 19.4213 136.217 20.9733C136.299 21.3613 136.359 21.7568 136.389 22.1522C136.434 22.6969 136.493 23.5774 136.516 24.3981C136.538 25.107 136.471 25.8233 136.322 26.5172Z" fill="#B0744D"/>
<path d="M182.144 6.64217L184.061 8.31355V33.459H187.62V3.85156L182.144 6.64217Z" fill="#B0744D"/>
<path d="M53.3425 46.4102V54.3642H52.2158V46.4102H53.3425Z" fill="#B0744D"/>
<path d="M61.7217 54.3642V46.4102H63.0648C64.8555 48.9023 67.4074 52.163 67.8625 52.9838H67.8849C67.8103 51.9467 67.8252 50.693 67.8252 49.4022V46.4102H68.8773V54.3642H67.6088C66.4299 52.7749 63.311 48.492 62.7439 47.5667H62.7215C62.7812 48.589 62.7812 49.7156 62.7812 51.1258V54.3717H61.7217V54.3642Z" fill="#B0744D"/>
<path d="M84.5545 52.0359C84.0993 53.4013 83.107 54.528 80.8386 54.528C78.1973 54.528 76.7646 52.6776 76.7646 50.4018C76.7646 48.126 78.354 46.2383 80.8983 46.2383C83.1965 46.2383 84.271 47.4769 84.5843 48.7826H83.4278C83.0846 47.9469 82.4429 47.1784 80.8834 47.1784C79.0553 47.1784 77.951 48.5289 77.951 50.357C77.951 52.1627 79.0479 53.5879 80.8909 53.5879C82.3907 53.5879 82.9876 52.9462 83.4203 52.0284H84.5545V52.0359Z" fill="#B0744D"/>
<path d="M92.3516 46.4102H93.4783V49.6261H98.2686V46.4102H99.3953V54.3642H98.2686V50.5812H93.4783V54.3642H92.3516V46.4102Z" fill="#B0744D"/>
<path d="M113.654 50.6557H108.886V53.4091H114.146L113.997 54.3567H107.767V46.4102H113.907V47.3578H108.886V49.7082H113.654V50.6557Z" fill="#B0744D"/>
<path d="M129.681 50.3567C129.681 52.6026 128.159 54.5203 125.496 54.5203C122.936 54.5203 121.332 52.6847 121.332 50.3493C121.332 48.1406 122.974 46.2305 125.525 46.2305C128.07 46.238 129.681 48.1556 129.681 50.3567ZM122.526 50.3269C122.526 52.0356 123.57 53.5876 125.54 53.5876C127.488 53.5876 128.495 52.1102 128.495 50.3866C128.495 48.7376 127.458 47.1856 125.466 47.1856C123.615 47.1856 122.526 48.648 122.526 50.3269Z" fill="#B0744D"/>
<path d="M137.568 54.3642V46.4102H138.911C140.702 48.9023 143.254 52.163 143.709 52.9838H143.732C143.664 51.9467 143.672 50.693 143.672 49.4022V46.4102H144.724V54.3642H143.456C142.277 52.7749 139.158 48.492 138.591 47.5667H138.568C138.628 48.589 138.628 49.7156 138.628 51.1258V54.3717H137.568V54.3642Z" fill="#B0744D"/>
</svg>
