<svg width="194" height="60" viewBox="0 0 194 60" fill="none" xmlns="http://www.w3.org/2000/svg">
<path d="M4.4541 15.5425C4.4541 15.5425 6.84926 16.7736 6.84926 17.5123V33.4576H10.483V12.5579C8.45351 13.7368 4.4541 15.5425 4.4541 15.5425Z" fill="white"/>
<path d="M11.3789 16.5422C11.3789 16.5422 12.8861 15.1693 15.9678 15.2439C19.0494 15.3185 19.7358 17.2735 19.7358 17.8032C19.7358 18.333 19.7358 33.4501 19.7358 33.4501H23.2278C23.2278 33.4501 23.2278 17.2362 23.2278 16.8108C23.2278 16.3855 22.2653 12.9159 17.7436 12.8413C13.2816 13.0055 11.3789 16.5422 11.3789 16.5422Z" fill="white"/>
<path d="M101.142 16.8855C101.142 16.8855 102.649 15.5424 105.73 15.6096C108.812 15.6767 109.499 17.5943 109.499 18.1166C109.499 18.6389 109.499 33.4501 109.499 33.4501H112.991C112.991 33.4501 112.991 17.557 112.991 17.1392C112.991 16.7213 112.028 13.3189 107.506 13.2517C103.044 13.4159 101.142 16.8855 101.142 16.8855Z" fill="white"/>
<path d="M34.86 20.5715H45.6345C45.6345 20.5715 46.224 14.6992 40.3816 13.3562C39.2922 13.1025 37.4119 13.095 36.3225 13.3412C34.099 13.8337 31.174 16.3482 30.2861 18.818C29.3982 21.2878 29.234 25.0111 29.8534 26.8093C30.1742 27.7569 30.592 29.0254 31.4501 30.2715C32.2261 31.3907 33.4424 32.5174 34.1214 32.8905C35.5614 33.6665 41.7247 34.8976 45.7017 28.5926C45.7017 28.5926 41.6575 32.3458 37.9939 31.1295C37.9939 31.1295 35.748 30.5475 33.987 27.9062C32.2261 25.2648 32.2709 22.7577 32.4127 21.2803C32.5544 19.8029 33.2707 17.7286 33.8378 16.7885C34.4049 15.8483 36.1509 13.6546 38.9937 14.2515C41.8366 14.8485 42.4335 16.9601 42.4335 17.8331C42.4335 18.7061 42.1724 19.3702 41.3516 19.5492L34.86 20.5715Z" fill="white"/>
<path d="M166.885 20.5715H177.659C177.659 20.5715 178.249 14.6992 172.406 13.3562C171.317 13.1025 169.437 13.095 168.347 13.3412C166.124 13.8337 163.199 16.3482 162.311 18.818C161.423 21.2878 161.259 25.0111 161.878 26.8093C162.199 27.7569 162.617 29.0254 163.475 30.2715C164.251 31.3907 165.467 32.5174 166.146 32.8905C167.586 33.6665 173.75 34.8976 177.727 28.5926C177.727 28.5926 173.682 32.3458 170.019 31.1295C170.019 31.1295 167.773 30.5475 166.012 27.9062C164.251 25.2648 164.296 22.7577 164.438 21.2803C164.579 19.8029 165.296 17.7286 165.863 16.7885C166.43 15.8483 168.176 13.6546 171.019 14.2515C173.861 14.8485 174.458 16.9601 174.458 17.8331C174.458 18.7061 174.197 19.3702 173.376 19.5492L166.885 20.5715Z" fill="white"/>
<path d="M62.5649 18.3107V14.0651C62.5649 14.0651 56.0585 11.3565 52.4918 14.5426C52.4918 14.5426 49.3431 17.863 52.4247 22.3548C52.4247 22.3548 53.2828 23.586 57.2896 25.1977C61.2965 26.8094 62.5649 30.473 58.7968 31.9131C57.2672 32.4951 56.2151 32.4652 55.4317 32.3608C54.2826 32.2041 53.723 31.6743 53.1111 30.9207C52.0815 29.6522 51.0518 27.3541 51.0518 27.3541V31.7415C51.0518 31.7415 52.3874 32.5995 53.7901 33.1442C55.1929 33.6889 56.2748 33.6068 56.2748 33.6068C56.2748 33.6068 61.774 33.7934 63.6618 29.3388C63.6618 29.3388 64.4154 27.2123 62.7738 25.0932C61.1323 22.9742 56.6778 20.9819 56.6778 20.9819C55.2377 20.2283 53.529 19.1688 53.6633 17.2138C53.6633 17.2138 53.7305 14.1621 57.0881 14.1994C57.0807 14.1994 61.2666 13.7218 62.5649 18.3107Z" fill="white"/>
<path d="M68.0488 15.5723H70.929V30.6446C70.929 30.6446 71.2722 32.3832 72.869 33.092C74.5105 33.5248 78.1891 34.4202 80.4499 30.3089C80.4499 30.3089 79.1367 31.2863 77.7264 31.54C76.0924 31.831 74.3165 31.3236 74.2792 29.9656V15.5723H80.7857V13.7219H74.2792V8.78979C74.2792 8.78979 72.5929 11.461 71.3394 12.6176C70.0858 13.7741 68.0488 15.5723 68.0488 15.5723Z" fill="white"/>
<path d="M144.246 15.5723H147.126V30.6446C147.126 30.6446 147.469 32.3832 149.066 33.092C150.708 33.5248 154.386 34.4202 156.647 30.3089C156.647 30.3089 155.334 31.2863 153.924 31.54C152.29 31.831 150.514 31.3236 150.476 29.9656V15.5723H156.983V13.7219H150.476V8.78979C150.476 8.78979 148.79 11.461 147.537 12.6176C146.283 13.7741 144.246 15.5723 144.246 15.5723Z" fill="white"/>
<path d="M94.7686 6.71531L96.8279 8.31954V33.4575H100.387V3.91724L94.7686 6.71531Z" fill="white"/>
<path d="M139.202 18.5719C137.956 15.8484 135.367 12.9086 130.009 12.8489C128.89 12.8563 119.63 13.6696 119.712 23.101C119.795 31.8833 127.01 33.48 130.196 33.4502C130.196 33.4502 136.247 33.883 139.105 27.6302C140.418 24.765 140.515 21.4371 139.202 18.5719ZM136.322 26.5184C135.352 30.958 133.442 32.5846 130.129 32.704C125.719 32.4727 123.391 27.8167 123.548 22.8399C123.495 17.6243 125.697 15.2291 127.495 14.2516C128.957 13.4607 130.763 13.3786 132.218 14.177C134.8 15.5947 135.874 19.4225 136.217 20.9745C136.299 21.3625 136.359 21.758 136.389 22.1534C136.434 22.6981 136.493 23.5786 136.516 24.3993C136.538 25.1082 136.471 25.8245 136.322 26.5184Z" fill="white"/>
<path d="M182.144 6.64071L184.061 8.31209V33.4575H187.62V3.8501L182.144 6.64071Z" fill="white"/>
<path d="M53.3425 46.4109V54.3649H52.2158V46.4109H53.3425Z" fill="white"/>
<path d="M61.7217 54.3649V46.4109H63.0648C64.8555 48.903 67.4074 52.1637 67.8625 52.9845H67.8849C67.8103 51.9474 67.8252 50.6937 67.8252 49.4029V46.4109H68.8773V54.3649H67.6088C66.4299 52.7756 63.311 48.4927 62.7439 47.5674H62.7215C62.7812 48.5897 62.7812 49.7163 62.7812 51.1265V54.3724H61.7217V54.3649Z" fill="white"/>
<path d="M84.5545 52.0369C84.0993 53.4023 83.107 54.529 80.8386 54.529C78.1973 54.529 76.7646 52.6786 76.7646 50.4028C76.7646 48.127 78.354 46.2393 80.8983 46.2393C83.1965 46.2393 84.271 47.4779 84.5843 48.7836H83.4278C83.0846 47.9479 82.4429 47.1794 80.8834 47.1794C79.0553 47.1794 77.951 48.5299 77.951 50.358C77.951 52.1637 79.0479 53.5889 80.8909 53.5889C82.3907 53.5889 82.9876 52.9472 83.4203 52.0294H84.5545V52.0369Z" fill="white"/>
<path d="M92.3516 46.4109H93.4783V49.6268H98.2686V46.4109H99.3953V54.3649H98.2686V50.5819H93.4783V54.3649H92.3516V46.4109Z" fill="white"/>
<path d="M113.654 50.6564H108.886V53.4098H114.146L113.997 54.3574H107.767V46.4109H113.907V47.3585H108.886V49.7089H113.654V50.6564Z" fill="white"/>
<path d="M129.681 50.3579C129.681 52.6038 128.159 54.5215 125.496 54.5215C122.936 54.5215 121.332 52.6859 121.332 50.3505C121.332 48.1418 122.974 46.2317 125.525 46.2317C128.07 46.2392 129.681 48.1568 129.681 50.3579ZM122.526 50.3281C122.526 52.0368 123.57 53.5888 125.54 53.5888C127.488 53.5888 128.495 52.1114 128.495 50.3878C128.495 48.7388 127.458 47.1868 125.466 47.1868C123.615 47.1868 122.526 48.6492 122.526 50.3281Z" fill="white"/>
<path d="M137.568 54.3649V46.4109H138.911C140.702 48.903 143.254 52.1637 143.709 52.9845H143.732C143.664 51.9474 143.672 50.6937 143.672 49.4029V46.4109H144.724V54.3649H143.456C142.277 52.7756 139.158 48.4927 138.591 47.5674H138.568C138.628 48.5897 138.628 49.7163 138.628 51.1265V54.3724H137.568V54.3649Z" fill="white"/>
</svg>
