<svg width="260" height="80" viewBox="0 0 260 80" fill="none" xmlns="http://www.w3.org/2000/svg">
<path d="M5.96997 20.8301C5.96997 20.8301 9.17997 22.4801 9.17997 23.4701V44.8401H14.05V16.8301C11.33 18.4101 5.96997 20.8301 5.96997 20.8301Z" fill="white"/>
<path d="M15.25 22.17C15.25 22.17 17.27 20.33 21.4 20.43C25.53 20.53 26.45 23.15 26.45 23.86C26.45 24.57 26.45 44.83 26.45 44.83H31.13C31.13 44.83 31.13 23.1 31.13 22.53C31.13 21.96 29.84 17.31 23.78 17.21C17.8 17.43 15.25 22.17 15.25 22.17Z" fill="white"/>
<path d="M135.55 22.63C135.55 22.63 137.57 20.83 141.7 20.92C145.83 21.01 146.75 23.58 146.75 24.28C146.75 24.98 146.75 44.83 146.75 44.83H151.43C151.43 44.83 151.43 23.53 151.43 22.97C151.43 22.41 150.14 17.85 144.08 17.76C138.1 17.98 135.55 22.63 135.55 22.63Z" fill="white"/>
<path d="M46.7199 27.57H61.1599C61.1599 27.57 61.9499 19.7 54.1199 17.9C52.6599 17.56 50.1399 17.55 48.6799 17.88C45.6999 18.54 41.7799 21.91 40.5899 25.22C39.3999 28.53 39.1799 33.52 40.0099 35.93C40.4399 37.2 40.9999 38.9 42.1499 40.57C43.1899 42.07 44.8199 43.58 45.7299 44.08C47.6599 45.12 55.9199 46.77 61.2499 38.32C61.2499 38.32 55.8299 43.35 50.9199 41.72C50.9199 41.72 47.9099 40.94 45.5499 37.4C43.1899 33.86 43.2499 30.5 43.4399 28.52C43.6299 26.54 44.5899 23.76 45.3499 22.5C46.1099 21.24 48.4499 18.3 52.2599 19.1C56.0699 19.9 56.8699 22.73 56.8699 23.9C56.8699 25.07 56.5199 25.96 55.4199 26.2L46.7199 27.57Z" fill="white"/>
<path d="M223.66 27.57H238.1C238.1 27.57 238.89 19.7 231.06 17.9C229.6 17.56 227.08 17.55 225.62 17.88C222.64 18.54 218.72 21.91 217.53 25.22C216.34 28.53 216.12 33.52 216.95 35.93C217.38 37.2 217.94 38.9 219.09 40.57C220.13 42.07 221.76 43.58 222.67 44.08C224.6 45.12 232.86 46.77 238.19 38.32C238.19 38.32 232.77 43.35 227.86 41.72C227.86 41.72 224.85 40.94 222.49 37.4C220.13 33.86 220.19 30.5 220.38 28.52C220.57 26.54 221.53 23.76 222.29 22.5C223.05 21.24 225.39 18.3 229.2 19.1C233.01 19.9 233.81 22.73 233.81 23.9C233.81 25.07 233.46 25.96 232.36 26.2L223.66 27.57Z" fill="white"/>
<path d="M83.85 24.5401V18.8501C83.85 18.8501 75.13 15.2201 70.35 19.4901C70.35 19.4901 66.13 23.9401 70.26 29.9601C70.26 29.9601 71.41 31.6101 76.78 33.7701C82.15 35.9301 83.85 40.8401 78.8 42.7701C76.75 43.5501 75.34 43.5101 74.29 43.3701C72.75 43.1601 72 42.4501 71.18 41.4401C69.8 39.7401 68.42 36.6601 68.42 36.6601V42.5401C68.42 42.5401 70.21 43.6901 72.09 44.4201C73.97 45.1501 75.42 45.0401 75.42 45.0401C75.42 45.0401 82.79 45.2901 85.32 39.3201C85.32 39.3201 86.33 36.4701 84.13 33.6301C81.93 30.7901 75.96 28.1201 75.96 28.1201C74.03 27.1101 71.74 25.6901 71.92 23.0701C71.92 23.0701 72.01 18.9801 76.51 19.0301C76.5 19.0301 82.11 18.3901 83.85 24.5401Z" fill="white"/>
<path d="M91.2 20.87H95.06V41.07C95.06 41.07 95.52 43.4 97.66 44.35C99.86 44.93 104.79 46.13 107.82 40.62C107.82 40.62 106.06 41.93 104.17 42.27C101.98 42.66 99.6 41.98 99.55 40.16V20.87H108.27V18.39H99.55V11.78C99.55 11.78 97.29 15.36 95.61 16.91C93.93 18.46 91.2 20.87 91.2 20.87Z" fill="white"/>
<path d="M193.32 20.87H197.18V41.07C197.18 41.07 197.64 43.4 199.78 44.35C201.98 44.93 206.91 46.13 209.94 40.62C209.94 40.62 208.18 41.93 206.29 42.27C204.1 42.66 201.72 41.98 201.67 40.16V20.87H210.39V18.39H201.67V11.78C201.67 11.78 199.41 15.36 197.73 16.91C196.05 18.46 193.32 20.87 193.32 20.87Z" fill="white"/>
<path d="M127.01 9L129.77 11.15V44.84H134.54V5.25L127.01 9Z" fill="white"/>
<path d="M186.56 24.89C184.89 21.24 181.42 17.3 174.24 17.22C172.74 17.23 160.33 18.32 160.44 30.96C160.55 42.73 170.22 44.87 174.49 44.83C174.49 44.83 182.6 45.41 186.43 37.03C188.19 33.19 188.32 28.73 186.56 24.89ZM182.7 35.54C181.4 41.49 178.84 43.67 174.4 43.83C168.49 43.52 165.37 37.28 165.58 30.61C165.51 23.62 168.46 20.41 170.87 19.1C172.83 18.04 175.25 17.93 177.2 19C180.66 20.9 182.1 26.03 182.56 28.11C182.67 28.63 182.75 29.16 182.79 29.69C182.85 30.42 182.93 31.6 182.96 32.7C182.99 33.65 182.9 34.61 182.7 35.54Z" fill="white"/>
<path d="M244.11 8.89991L246.68 11.1399V44.8399H251.45V5.15991L244.11 8.89991Z" fill="white"/>
<path d="M71.49 62.2V72.86H69.98V62.2H71.49Z" fill="white"/>
<path d="M82.72 72.86V62.2H84.52C86.92 65.54 90.34 69.91 90.95 71.01H90.98C90.88 69.62 90.9 67.9399 90.9 66.2099V62.2H92.31V72.86H90.61C89.03 70.73 84.85 64.99 84.09 63.75H84.06C84.14 65.12 84.14 66.6299 84.14 68.5199V72.87H82.72V72.86Z" fill="white"/>
<path d="M113.32 69.74C112.71 71.57 111.38 73.08 108.34 73.08C104.8 73.08 102.88 70.6 102.88 67.55C102.88 64.5 105.01 61.97 108.42 61.97C111.5 61.97 112.94 63.63 113.36 65.38H111.81C111.35 64.26 110.49 63.23 108.4 63.23C105.95 63.23 104.47 65.04 104.47 67.49C104.47 69.91 105.94 71.82 108.41 71.82C110.42 71.82 111.22 70.96 111.8 69.73H113.32V69.74Z" fill="white"/>
<path d="M123.77 62.2H125.28V66.51H131.7V62.2H133.21V72.86H131.7V67.79H125.28V72.86H123.77V62.2Z" fill="white"/>
<path d="M152.32 67.8899H145.93V71.58H152.98L152.78 72.8499H144.43V62.2H152.66V63.47H145.93V66.62H152.32V67.8899Z" fill="white"/>
<path d="M173.8 67.49C173.8 70.5 171.76 73.07 168.19 73.07C164.76 73.07 162.61 70.61 162.61 67.48C162.61 64.52 164.81 61.96 168.23 61.96C171.64 61.97 173.8 64.54 173.8 67.49ZM164.21 67.45C164.21 69.74 165.61 71.82 168.25 71.82C170.86 71.82 172.21 69.84 172.21 67.53C172.21 65.32 170.82 63.24 168.15 63.24C165.67 63.24 164.21 65.2 164.21 67.45Z" fill="white"/>
<path d="M184.37 72.86V62.2H186.17C188.57 65.54 191.99 69.91 192.6 71.01H192.63C192.54 69.62 192.55 67.9399 192.55 66.2099V62.2H193.96V72.86H192.26C190.68 70.73 186.5 64.99 185.74 63.75H185.71C185.79 65.12 185.79 66.6299 185.79 68.5199V72.87H184.37V72.86Z" fill="white"/>
</svg>
