<svg width="611" height="2822" viewBox="0 0 611 2822" fill="none" xmlns="http://www.w3.org/2000/svg">
<path fill-rule="evenodd" clip-rule="evenodd" d="M0 0.164856H-223V80H0V2681.6H-223V2822H590.553C546.092 2704.66 433.918 2620.54 301.637 2617.17C139.146 2603.07 11.6229 2465.79 11.6229 2299.93C11.6229 2134.07 139.146 1996.79 301.637 1982.69C473.234 1978.32 611 1838.06 611 1665.66C611 1493.21 473.13 1352.9 301.437 1348.63C138.974 1334.51 11.4813 1197.24 11.4813 1031.4C11.4813 865.556 138.974 728.286 301.437 714.166C473.13 709.897 611 569.591 611 397.133C611 221.985 468.798 80 293.379 80H0V0.164856Z" fill="url(#paint0_linear_831_334)"/>
<defs>
<linearGradient id="paint0_linear_831_334" x1="194" y1="27.5328" x2="194" y2="2707.64" gradientUnits="userSpaceOnUse">
<stop stop-color="#F4F7EB" stop-opacity="0.02"/>
<stop offset="0.0362943" stop-color="#EEEDE5"/>
<stop offset="0.38" stop-color="#E2DFC7"/>
<stop offset="0.595" stop-color="#F0C28A"/>
<stop offset="0.903787" stop-color="#EAB370"/>
<stop offset="0.945764" stop-color="#E4B276" stop-opacity="0.307603"/>
<stop offset="0.98" stop-color="#E2B278" stop-opacity="0"/>
</linearGradient>
</defs>
</svg>
