<?xml version="1.0" encoding="utf-8"?>
<!-- Generator: Adobe Illustrator 28.2.0, SVG Export Plug-In . SVG Version: 6.00 Build 0)  -->
<svg version="1.1" id="레이어_1" xmlns="http://www.w3.org/2000/svg" xmlns:xlink="http://www.w3.org/1999/xlink" x="0px"
	 y="0px" viewBox="0 0 2000 4366" style="enable-background:new 0 0 2000 4366;" xml:space="preserve">
<style type="text/css">
	.st0{fill:url(#SVGID_1_);}
</style>
<image style="display:none;overflow:visible;" width="2000" height="4347" xlink:href="../../../../../../Group 5.jpg"  transform="matrix(1 0 0 1 0 9)">
</image>
<linearGradient id="SVGID_1_" gradientUnits="userSpaceOnUse" x1="669.5403" y1="95.9869" x2="669.5403" y2="4325.3418">
	<stop  offset="8.313483e-03" style="stop-color:#F7F7F7;stop-opacity:0.5"/>
	<stop  offset="0.2734" style="stop-color:#F7F7F7"/>
	<stop  offset="0.3315" style="stop-color:#F6F5F4"/>
	<stop  offset="0.382" style="stop-color:#F5EFE9"/>
	<stop  offset="0.4297" style="stop-color:#F2E6D7"/>
	<stop  offset="0.4757" style="stop-color:#EED8BE"/>
	<stop  offset="0.52" style="stop-color:#E8C79E"/>
	<stop  offset="0.5618" style="stop-color:#E2B278"/>
	<stop  offset="0.87" style="stop-color:#E2B278"/>
	<stop  offset="0.8903" style="stop-color:#E3B67F;stop-opacity:0.8439"/>
	<stop  offset="0.9204" style="stop-color:#E5C193;stop-opacity:0.6127"/>
	<stop  offset="0.9565" style="stop-color:#E9D3B4;stop-opacity:0.3347"/>
	<stop  offset="0.997" style="stop-color:#EEEBE1;stop-opacity:0.0227"/>
	<stop  offset="1" style="stop-color:#EEEDE5;stop-opacity:0"/>
</linearGradient>
<path class="st0" d="M0,0h839.88c0,0,197.7,33.33,301.94,155.55c104.24,122.21,122.21,163.55,136.59,248.02
	s14.38,206.68-37.74,309.13c-21.09,35.42-49.93,76.12-89.19,116.6c-89,91.77-187.01,136.48-248.69,158.38
	c-36.67,18.13-81.93,45.17-127.75,85.37c-75.34,66.09-118.34,138.01-141.84,186.01c-26.55,71.93-54.32,185.89-26.96,316.31
	c35.07,167.17,151.72,318.56,292.95,393.6c14.57,7.74,62.12,23.84,125.46,55.84c29.81,15.06,64.37,32.53,100.1,56.48
	c23.17,15.53,89.08,59.73,137.49,126.71c85.75,118.65,77.98,255.45,75.48,291.15c-1.75,25.01-15.37,174.12-124.01,285.76
	c-26.61,27.35-68.06,51.48-150.97,99.75c-112.19,65.32-144.82,71.57-202.19,105.14c-51.98,30.41-193.98,110.58-253.09,270.32
	c-5.71,15.44-3.57,9.44-3.57,9.44s-1.09,3-2.14,6c-60.58,173.73,16.18,342.37,16.18,342.38c10.97,24.1,51.28,108.81,139.29,173.43
	c102.03,74.92,252.97,111.74,321.71,128.5c26.48,6.46,43.38,9.67,67.4,21.57c105.7,52.34,137.4,171.01,140.29,182.42
	c6.47,25.5,34.29,135.22-24.37,197.7c-43.71,46.55-114.89,45.01-143.78,44.44c-372.75-7.33-745.66,4.18-1118.45,0c0,0,0,0,0,0V0z"/>
</svg>
