<svg width="42" height="42" viewBox="0 0 42 42" fill="none" xmlns="http://www.w3.org/2000/svg">
<path d="M0 0H42V32C42 37.5228 37.5228 42 32 42H10C4.47715 42 0 37.5228 0 32V0Z" fill="#B0744D"/>
<path d="M32.8734 13.4733C33.8175 12.5211 33.8175 10.9749 32.8734 10.0227C31.9294 9.07056 30.3964 9.07056 29.4524 10.0227L21.5 18.0512L13.5401 10.0303C12.5961 9.07817 11.063 9.07817 10.119 10.0303C9.17501 10.9825 9.17501 12.5288 10.119 13.4809L18.0789 21.5018L10.1266 29.5303C9.18256 30.4825 9.18256 32.0288 10.1266 32.9809C11.0706 33.9331 12.6037 33.9331 13.5477 32.9809L21.5 24.9524L29.4599 32.9733C30.4039 33.9254 31.937 33.9254 32.881 32.9733C33.825 32.0211 33.825 30.4749 32.881 29.5227L24.9211 21.5018L32.8734 13.4733Z" fill="white"/>
</svg>
