<svg width="88" height="100" viewBox="0 0 88 100" fill="none" xmlns="http://www.w3.org/2000/svg">
<g clip-path="url(#clip0_695_986)">
<path d="M81.7143 0C78.5714 0 56.5714 6.25 56.5714 34.375V56.25C56.5714 63.1445 62.2089 68.75 69.1429 68.75H75.4286V93.75C75.4286 97.207 78.2375 100 81.7143 100C85.1911 100 88 97.207 88 93.75V68.75V46.875V6.25C88 2.79297 85.1911 0 81.7143 0ZM12.5714 3.125C12.5714 1.52344 11.3732 0.195312 9.7625 0.0195313C8.15179 -0.15625 6.71786 0.898437 6.36429 2.44141L0.4125 29.0625C0.1375 30.293 0 31.543 0 32.793C0 41.7578 6.89464 49.1211 15.7143 49.9219V93.75C15.7143 97.207 18.5232 100 22 100C25.4768 100 28.2857 97.207 28.2857 93.75V49.9219C37.1054 49.1211 44 41.7578 44 32.793C44 31.543 43.8625 30.293 43.5875 29.0625L37.6357 2.44141C37.2821 0.878906 35.8089 -0.15625 34.2179 0.0195313C32.6268 0.195312 31.4286 1.52344 31.4286 3.125V29.3359C31.4286 30.3906 30.5643 31.25 29.5036 31.25C28.5018 31.25 27.6768 30.4883 27.5786 29.4922L25.1232 2.85156C24.9857 1.23047 23.6304 0 22 0C20.3696 0 19.0143 1.23047 18.8768 2.85156L16.4411 29.4922C16.3429 30.4883 15.5179 31.25 14.5161 31.25C13.4554 31.25 12.5911 30.3906 12.5911 29.3359V3.125H12.5714ZM22.0589 32.8125H22H21.9411L22 32.6758L22.0589 32.8125Z" fill="white"/>
</g>
<defs>
<clipPath id="clip0_695_986">
<rect width="88" height="100" fill="white"/>
</clipPath>
</defs>
</svg>
