<svg width="76" height="100" viewBox="0 0 76 100" fill="none" xmlns="http://www.w3.org/2000/svg">
<path d="M3.625 12.5C3.625 5.60547 9.23047 0 16.125 0H59.875C66.7695 0 72.375 5.60547 72.375 12.5V87.5C72.375 94.3945 66.7695 100 59.875 100H16.125C9.23047 100 3.625 94.3945 3.625 87.5V12.5ZM44.25 87.5C44.25 85.8424 43.5915 84.2527 42.4194 83.0806C41.2473 81.9085 39.6576 81.25 38 81.25C36.3424 81.25 34.7527 81.9085 33.5806 83.0806C32.4085 84.2527 31.75 85.8424 31.75 87.5C31.75 89.1576 32.4085 90.7473 33.5806 91.9194C34.7527 93.0915 36.3424 93.75 38 93.75C39.6576 93.75 41.2473 93.0915 42.4194 91.9194C43.5915 90.7473 44.25 89.1576 44.25 87.5ZM59.875 12.5H16.125V75H59.875V12.5Z" fill="white"/>
</svg>
