<svg width="100" height="99" viewBox="0 0 100 99" fill="none" xmlns="http://www.w3.org/2000/svg">
<g clip-path="url(#clip0_695_978)">
<path d="M37.335 13.3031L44.0639 24.75H43.8125H29.8906C25.6174 24.75 22.1562 21.2889 22.1562 17.0156C22.1562 12.7424 25.6174 9.28125 29.8906 9.28125H30.316C33.1971 9.28125 35.8848 10.8088 37.335 13.3031ZM12.875 17.0156C12.875 19.8 13.5518 22.4297 14.7312 24.75H6.6875C3.26504 24.75 0.5 27.515 0.5 30.9375V43.3125C0.5 46.735 3.26504 49.5 6.6875 49.5H93.3125C96.735 49.5 99.5 46.735 99.5 43.3125V30.9375C99.5 27.515 96.735 24.75 93.3125 24.75H85.2687C86.4482 22.4297 87.125 19.8 87.125 17.0156C87.125 7.61836 79.5066 0 70.1094 0H69.684C63.5158 0 57.7924 3.26777 54.66 8.58516L50 16.5322L45.34 8.60449C42.2076 3.26777 36.4842 0 30.316 0H29.8906C20.4934 0 12.875 7.61836 12.875 17.0156ZM77.8438 17.0156C77.8438 21.2889 74.3826 24.75 70.1094 24.75H56.1875H55.9361L62.665 13.3031C64.1346 10.8088 66.8029 9.28125 69.684 9.28125H70.1094C74.3826 9.28125 77.8438 12.7424 77.8438 17.0156ZM6.6875 55.6875V89.7188C6.6875 94.8428 10.8447 99 15.9688 99H43.8125V55.6875H6.6875ZM56.1875 99H84.0312C89.1553 99 93.3125 94.8428 93.3125 89.7188V55.6875H56.1875V99Z" fill="white"/>
</g>
<defs>
<clipPath id="clip0_695_978">
<rect width="99" height="99" fill="white" transform="translate(0.5)"/>
</clipPath>
</defs>
</svg>
