<svg width="116" height="93" viewBox="0 0 116 93" fill="none" xmlns="http://www.w3.org/2000/svg">
<g clip-path="url(#clip0_695_982)">
<path d="M12 29.0625C12 16.2205 22.2961 5.8125 35 5.8125H81C93.7039 5.8125 104 16.2205 104 29.0625V35.1656C97.4414 36.5098 92.5 42.3768 92.5 49.4062V58.125H23.5V49.4062C23.5 42.3768 18.5586 36.5098 12 35.1656V29.0625ZM98.25 49.4062C98.25 45.61 100.658 42.3768 104 41.1779C104.898 40.851 105.869 40.6875 106.875 40.6875C111.637 40.6875 115.5 44.5928 115.5 49.4062V81.375C115.5 84.59 112.93 87.1875 109.75 87.1875H104C100.82 87.1875 98.25 84.59 98.25 81.375H17.75C17.75 84.59 15.1805 87.1875 12 87.1875H6.25C3.06953 87.1875 0.5 84.59 0.5 81.375V49.4062C0.5 44.5928 4.36328 40.6875 9.125 40.6875C10.1312 40.6875 11.1016 40.8691 12 41.1779C15.3422 42.3768 17.75 45.61 17.75 49.4062V58.125V63.9375H23.5H92.5H98.25V58.125V49.4062Z" fill="white"/>
</g>
<defs>
<clipPath id="clip0_695_982">
<rect width="115" height="93" fill="white" transform="translate(0.5)"/>
</clipPath>
</defs>
</svg>
