<svg width="55" height="46" viewBox="0 0 55 46" fill="none" xmlns="http://www.w3.org/2000/svg">
<circle cx="11.5" cy="22.5" r="2" stroke="#333333"/>
<circle cx="43.5" cy="22.5" r="2" stroke="#333333"/>
<circle cx="27.5" cy="2.5" r="2" stroke="#333333"/>
<circle cx="11.5" cy="40.5" r="2" stroke="#333333"/>
<circle cx="43.5" cy="40.5" r="2" stroke="#333333"/>
<circle cx="27.5" cy="20.5" r="2" stroke="#333333"/>
<circle cx="3.5" cy="27.5" r="2" stroke="#333333"/>
<circle cx="35.5" cy="27.5" r="2" stroke="#333333"/>
<circle cx="19.5" cy="7.5" r="2" stroke="#333333"/>
<circle cx="3.5" cy="36.5" r="2" stroke="#333333"/>
<circle cx="35.5" cy="36.5" r="2" stroke="#333333"/>
<circle cx="19.5" cy="16.5" r="2" stroke="#333333"/>
<circle cx="19.5" cy="36.5" r="2" stroke="#333333"/>
<circle cx="51.5" cy="36.5" r="2" stroke="#333333"/>
<circle cx="35.5" cy="16.5" r="2" stroke="#333333"/>
<circle cx="19.5" cy="27.5" r="2" stroke="#333333"/>
<circle cx="51.5" cy="27.5" r="2" stroke="#333333"/>
<circle cx="35.5" cy="7.5" r="2" stroke="#333333"/>
<circle cx="11.5" cy="31.5" r="5" stroke="#333333"/>
<circle cx="43.5" cy="31.5" r="5" stroke="#333333"/>
<circle cx="27.5" cy="11.5" r="5" stroke="#333333"/>
</svg>
