<svg width="172" height="53" viewBox="0 0 172 53" fill="none" xmlns="http://www.w3.org/2000/svg">
<path d="M3.9494 13.7999C3.9494 13.7999 6.07294 14.893 6.07294 15.5489V29.7065H9.29463V11.1499C7.49525 12.1967 3.9494 13.7999 3.9494 13.7999Z" fill="#B0744D"/>
<path d="M10.0884 14.6876C10.0884 14.6876 11.4247 13.4686 14.1569 13.5349C16.8891 13.6011 17.4977 15.3369 17.4977 15.8072C17.4977 16.2776 17.4977 29.6999 17.4977 29.6999H20.5937C20.5937 29.6999 20.5937 15.3037 20.5937 14.9261C20.5937 14.5485 19.7403 11.4679 15.7314 11.4016C11.7754 11.5474 10.0884 14.6876 10.0884 14.6876Z" fill="#B0744D"/>
<path d="M89.6715 14.9924C89.6715 14.9924 91.0078 13.7999 93.74 13.8595C96.4721 13.9191 97.0807 15.6217 97.0807 16.0855C97.0807 16.5492 97.0807 29.6999 97.0807 29.6999H100.177C100.177 29.6999 100.177 15.5886 100.177 15.2176C100.177 14.8466 99.3234 11.8256 95.3144 11.766C91.3584 11.9117 89.6715 14.9924 89.6715 14.9924Z" fill="#B0744D"/>
<path d="M30.9071 18.2651H40.4597C40.4597 18.2651 40.9823 13.0512 35.8025 11.8587C34.8366 11.6335 33.1695 11.6268 32.2037 11.8455C30.2323 12.2827 27.6391 14.5153 26.8518 16.7082C26.0646 18.9011 25.9191 22.207 26.4681 23.8036C26.7526 24.645 27.1231 25.7712 27.8838 26.8776C28.5718 27.8713 29.6502 28.8717 30.2522 29.203C31.5289 29.892 36.9932 30.9851 40.5192 25.387C40.5192 25.387 36.9337 28.7193 33.6855 27.6395C33.6855 27.6395 31.6943 27.1227 30.1331 24.7775C28.5718 22.4322 28.6115 20.2062 28.7372 18.8945C28.8629 17.5827 29.498 15.741 30.0008 14.9062C30.5035 14.0715 32.0515 12.1237 34.572 12.6537C37.0925 13.1837 37.6217 15.0586 37.6217 15.8337C37.6217 16.6088 37.3901 17.1985 36.6625 17.3575L30.9071 18.2651Z" fill="#B0744D"/>
<path d="M147.96 18.2651H157.512C157.512 18.2651 158.035 13.0512 152.855 11.8587C151.889 11.6335 150.222 11.6268 149.256 11.8455C147.285 12.2827 144.692 14.5153 143.904 16.7082C143.117 18.9011 142.972 22.207 143.521 23.8036C143.805 24.645 144.176 25.7712 144.936 26.8776C145.624 27.8713 146.703 28.8717 147.305 29.203C148.582 29.892 154.046 30.9851 157.572 25.387C157.572 25.387 153.986 28.7193 150.738 27.6395C150.738 27.6395 148.747 27.1227 147.186 24.7775C145.624 22.4322 145.664 20.2062 145.79 18.8945C145.916 17.5827 146.551 15.741 147.053 14.9062C147.556 14.0715 149.104 12.1237 151.625 12.6537C154.145 13.1837 154.674 15.0586 154.674 15.8337C154.674 16.6088 154.443 17.1985 153.715 17.3575L147.96 18.2651Z" fill="#B0744D"/>
<path d="M55.47 16.2578V12.4881C55.47 12.4881 49.7014 10.0833 46.5392 12.9121C46.5392 12.9121 43.7475 15.8603 46.4797 19.8485C46.4797 19.8485 47.2405 20.9416 50.7929 22.3726C54.3454 23.8036 55.47 27.0565 52.1292 28.3351C50.7731 28.8519 49.8403 28.8254 49.1457 28.7326C48.1269 28.5935 47.6308 28.1231 47.0883 27.454C46.1754 26.3278 45.2625 24.2873 45.2625 24.2873V28.1828C45.2625 28.1828 46.4466 28.9446 47.6903 29.4283C48.934 29.9119 49.8932 29.839 49.8932 29.839C49.8932 29.839 54.7688 30.0046 56.4425 26.0495C56.4425 26.0495 57.1106 24.1614 55.6552 22.2799C54.1998 20.3984 50.2505 18.6295 50.2505 18.6295C48.9737 17.9604 47.4588 17.0196 47.5778 15.2839C47.5778 15.2839 47.6374 12.5743 50.6143 12.6074C50.6077 12.6074 54.3189 12.1834 55.47 16.2578Z" fill="#B0744D"/>
<path d="M60.3323 13.8263H62.8858V27.2088C62.8858 27.2088 63.1901 28.7524 64.6058 29.3818C66.0612 29.7661 69.3226 30.5611 71.327 26.9107C71.327 26.9107 70.1627 27.7786 68.9124 28.0038C67.4637 28.2622 65.8892 27.8117 65.8561 26.606V13.8263H71.6247V12.1833H65.8561V7.8042C65.8561 7.8042 64.361 10.1759 63.2497 11.2028C62.1383 12.2297 60.3323 13.8263 60.3323 13.8263Z" fill="#B0744D"/>
<path d="M127.889 13.8263H130.442V27.2088C130.442 27.2088 130.746 28.7524 132.162 29.3818C133.618 29.7661 136.879 30.5611 138.883 26.9107C138.883 26.9107 137.719 27.7786 136.469 28.0038C135.02 28.2622 133.446 27.8117 133.412 26.606V13.8263H139.181V12.1833H133.412V7.8042C133.412 7.8042 131.917 10.1759 130.806 11.2028C129.695 12.2297 127.889 13.8263 127.889 13.8263Z" fill="#B0744D"/>
<path d="M84.022 5.96252L85.8478 7.3869V29.7065H89.0034V3.47815L84.022 5.96252Z" fill="#B0744D"/>
<path d="M123.417 16.4896C122.312 14.0715 120.016 11.4612 115.266 11.4082C114.274 11.4148 106.064 12.137 106.137 20.511C106.21 28.3086 112.607 29.7263 115.432 29.6998C115.432 29.6998 120.797 30.0841 123.331 24.5323C124.495 21.9883 124.581 19.0336 123.417 16.4896ZM120.863 23.5452C120.003 27.4871 118.31 28.9313 115.372 29.0373C111.463 28.832 109.399 24.698 109.538 20.2791C109.491 15.6482 111.443 13.5216 113.037 12.6537C114.334 11.9515 115.935 11.8786 117.225 12.5875C119.514 13.8462 120.466 17.2448 120.77 18.6228C120.843 18.9673 120.896 19.3185 120.923 19.6696C120.962 20.1532 121.015 20.935 121.035 21.6637C121.055 22.2931 120.995 22.9291 120.863 23.5452Z" fill="#B0744D"/>
<path d="M161.488 5.89621L163.188 7.38021V29.7065H166.344V3.41846L161.488 5.89621Z" fill="#B0744D"/>
<path d="M47.2934 41.2075V48.2698H46.2944V41.2075H47.2934Z" fill="#B0744D"/>
<path d="M54.7224 48.2698V41.2075H55.9132C57.5009 43.4203 59.7633 46.3154 60.1669 47.0441H60.1867C60.1206 46.1233 60.1338 45.0103 60.1338 43.8641V41.2075H61.0666V48.2698H59.942C58.8967 46.8586 56.1315 43.0559 55.6287 42.2344H55.6089C55.6618 43.142 55.6618 44.1424 55.6618 45.3945V48.2764H54.7224V48.2698Z" fill="#B0744D"/>
<path d="M74.9655 46.2028C74.5619 47.4152 73.6821 48.4156 71.671 48.4156C69.3292 48.4156 68.059 46.7726 68.059 44.7519C68.059 42.7313 69.4681 41.0552 71.7239 41.0552C73.7615 41.0552 74.7141 42.1549 74.9919 43.3143H73.9666C73.6623 42.5723 73.0933 41.8899 71.7107 41.8899C70.0899 41.8899 69.1109 43.089 69.1109 44.7122C69.1109 46.3154 70.0833 47.5808 71.7173 47.5808C73.047 47.5808 73.5763 47.0111 73.9599 46.1962H74.9655V46.2028Z" fill="#B0744D"/>
<path d="M81.8786 41.2075H82.8775V44.0629H87.1246V41.2075H88.1235V48.2698H87.1246V44.9109H82.8775V48.2698H81.8786V41.2075Z" fill="#B0744D"/>
<path d="M100.766 44.9771H96.5383V47.4218H101.202L101.07 48.2631H95.546V41.2075H100.99V42.0489H96.5383V44.1358H100.766V44.9771Z" fill="#B0744D"/>
<path d="M114.975 44.7121C114.975 46.7063 113.626 48.4089 111.264 48.4089C108.995 48.4089 107.573 46.7792 107.573 44.7055C107.573 42.7445 109.028 41.0485 111.291 41.0485C113.546 41.0551 114.975 42.7578 114.975 44.7121ZM108.631 44.6856C108.631 46.2028 109.557 47.5808 111.304 47.5808C113.03 47.5808 113.924 46.269 113.924 44.7386C113.924 43.2745 113.004 41.8965 111.238 41.8965C109.597 41.8965 108.631 43.195 108.631 44.6856Z" fill="#B0744D"/>
<path d="M121.968 48.2698V41.2075H123.159C124.746 43.4203 127.009 46.3154 127.412 47.0441H127.432C127.373 46.1233 127.379 45.0103 127.379 43.8641V41.2075H128.312V48.2698H127.187C126.142 46.8586 123.377 43.0559 122.874 42.2344H122.854C122.907 43.142 122.907 44.1424 122.907 45.3945V48.2764H121.968V48.2698Z" fill="#B0744D"/>
</svg>
