<svg width="36" height="36" viewBox="0 0 36 36" fill="none" xmlns="http://www.w3.org/2000/svg">
<path d="M8.6636 17.6089C8.6636 18.5007 8.07487 19.0654 7.52723 19.0654C6.9796 19.0654 6.39087 18.5007 6.39087 17.6089C6.39087 16.717 6.9796 16.1523 7.52723 16.1523C8.07487 16.1523 8.6636 16.717 8.6636 17.6089Z" stroke="#333333"/>
<path d="M29.609 17.6089C29.609 18.5007 29.0203 19.0654 28.4727 19.0654C27.925 19.0654 27.3363 18.5007 27.3363 17.6089C27.3363 16.717 27.925 16.1523 28.4727 16.1523C29.0203 16.1523 29.609 16.717 29.609 17.6089Z" stroke="#333333"/>
<path d="M19.1364 1.95652C19.1364 2.84834 18.5476 3.41304 18 3.41304C17.4524 3.41304 16.8636 2.84834 16.8636 1.95652C16.8636 1.0647 17.4524 0.5 18 0.5C18.5476 0.5 19.1364 1.0647 19.1364 1.95652Z" stroke="#333333"/>
<path d="M8.6636 31.6958C8.6636 32.5876 8.07487 33.1523 7.52723 33.1523C6.9796 33.1523 6.39087 32.5876 6.39087 31.6958C6.39087 30.804 6.9796 30.2393 7.52723 30.2393C8.07487 30.2393 8.6636 30.804 8.6636 31.6958Z" stroke="#333333"/>
<path d="M29.609 31.6958C29.609 32.5876 29.0203 33.1523 28.4727 33.1523C27.925 33.1523 27.3363 32.5876 27.3363 31.6958C27.3363 30.804 27.925 30.2393 28.4727 30.2393C29.0203 30.2393 29.609 30.804 29.609 31.6958Z" stroke="#333333"/>
<path d="M19.1364 16.0434C19.1364 16.9353 18.5476 17.5 18 17.5C17.4524 17.5 16.8636 16.9353 16.8636 16.0434C16.8636 15.1516 17.4524 14.5869 18 14.5869C18.5476 14.5869 19.1364 15.1516 19.1364 16.0434Z" stroke="#333333"/>
<path d="M3.42727 21.522C3.42727 22.4138 2.83854 22.9785 2.2909 22.9785C1.74327 22.9785 1.15454 22.4138 1.15454 21.522C1.15454 20.6301 1.74327 20.0654 2.2909 20.0654C2.83854 20.0654 3.42727 20.6301 3.42727 21.522Z" stroke="#333333"/>
<path d="M24.3727 21.522C24.3727 22.4138 23.784 22.9785 23.2363 22.9785C22.6887 22.9785 22.1 22.4138 22.1 21.522C22.1 20.6301 22.6887 20.0654 23.2363 20.0654C23.784 20.0654 24.3727 20.6301 24.3727 21.522Z" stroke="#333333"/>
<path d="M13.8999 5.86961C13.8999 6.76142 13.3112 7.32613 12.7636 7.32613C12.2159 7.32613 11.6272 6.76142 11.6272 5.86961C11.6272 4.97779 12.2159 4.41309 12.7636 4.41309C13.3112 4.41309 13.8999 4.97779 13.8999 5.86961Z" stroke="#333333"/>
<path d="M3.42727 28.5654C3.42727 29.4572 2.83854 30.0219 2.2909 30.0219C1.74327 30.0219 1.15454 29.4572 1.15454 28.5654C1.15454 27.6736 1.74327 27.1089 2.2909 27.1089C2.83854 27.1089 3.42727 27.6736 3.42727 28.5654Z" stroke="#333333"/>
<path d="M24.3727 28.5654C24.3727 29.4572 23.784 30.0219 23.2363 30.0219C22.6887 30.0219 22.1 29.4572 22.1 28.5654C22.1 27.6736 22.6887 27.1089 23.2363 27.1089C23.784 27.1089 24.3727 27.6736 24.3727 28.5654Z" stroke="#333333"/>
<path d="M13.8999 12.9131C13.8999 13.8049 13.3112 14.3696 12.7636 14.3696C12.2159 14.3696 11.6272 13.8049 11.6272 12.9131C11.6272 12.0212 12.2159 11.4565 12.7636 11.4565C13.3112 11.4565 13.8999 12.0212 13.8999 12.9131Z" stroke="#333333"/>
<path d="M13.8999 28.5654C13.8999 29.4572 13.3112 30.0219 12.7636 30.0219C12.2159 30.0219 11.6272 29.4572 11.6272 28.5654C11.6272 27.6736 12.2159 27.1089 12.7636 27.1089C13.3112 27.1089 13.8999 27.6736 13.8999 28.5654Z" stroke="#333333"/>
<path d="M34.8455 28.5654C34.8455 29.4572 34.2568 30.0219 33.7091 30.0219C33.1615 30.0219 32.5728 29.4572 32.5728 28.5654C32.5728 27.6736 33.1615 27.1089 33.7091 27.1089C34.2568 27.1089 34.8455 27.6736 34.8455 28.5654Z" stroke="#333333"/>
<path d="M24.3727 12.9131C24.3727 13.8049 23.784 14.3696 23.2363 14.3696C22.6887 14.3696 22.1 13.8049 22.1 12.9131C22.1 12.0212 22.6887 11.4565 23.2363 11.4565C23.784 11.4565 24.3727 12.0212 24.3727 12.9131Z" stroke="#333333"/>
<path d="M13.8999 21.522C13.8999 22.4138 13.3112 22.9785 12.7636 22.9785C12.2159 22.9785 11.6272 22.4138 11.6272 21.522C11.6272 20.6301 12.2159 20.0654 12.7636 20.0654C13.3112 20.0654 13.8999 20.6301 13.8999 21.522Z" stroke="#333333"/>
<path d="M34.8455 21.522C34.8455 22.4138 34.2568 22.9785 33.7091 22.9785C33.1615 22.9785 32.5728 22.4138 32.5728 21.522C32.5728 20.6301 33.1615 20.0654 33.7091 20.0654C34.2568 20.0654 34.8455 20.6301 34.8455 21.522Z" stroke="#333333"/>
<path d="M24.3727 5.86961C24.3727 6.76142 23.784 7.32613 23.2363 7.32613C22.6887 7.32613 22.1 6.76142 22.1 5.86961C22.1 4.97779 22.6887 4.41309 23.2363 4.41309C23.784 4.41309 24.3727 4.97779 24.3727 5.86961Z" stroke="#333333"/>
<path d="M10.6272 24.652C10.6272 26.8405 9.15937 28.4564 7.52725 28.4564C5.89512 28.4564 4.42725 26.8405 4.42725 24.652C4.42725 22.4635 5.89512 20.8477 7.52725 20.8477C9.15937 20.8477 10.6272 22.4635 10.6272 24.652Z" stroke="#333333"/>
<path d="M31.5728 24.652C31.5728 26.8405 30.1049 28.4564 28.4728 28.4564C26.8407 28.4564 25.3728 26.8405 25.3728 24.652C25.3728 22.4635 26.8407 20.8477 28.4728 20.8477C30.1049 20.8477 31.5728 22.4635 31.5728 24.652Z" stroke="#333333"/>
<path d="M21.1 9.00015C21.1 11.1886 19.6321 12.8045 18 12.8045C16.3679 12.8045 14.9 11.1886 14.9 9.00015C14.9 6.81166 16.3679 5.1958 18 5.1958C19.6321 5.1958 21.1 6.81166 21.1 9.00015Z" stroke="#333333"/>
</svg>
